# xmcd
#
# Track frame offsets:
# 150
# 27597
# 56371
# 84619
# 113637
# 139468
# 171473
# 208697
# 230562
# 249084
# 280947
#
# Disc length: 4284 seconds
#
# Revision: 0
# Processed by: cddbd v1.5.2PL0 Copyright (c) Steve Scherf et al.
# Submitted via: Audion 3.0.2 (http://www.panic.com/audion/)
#
DISCID=9d10ba0b
DTITLE=jj - The ReCycle Session
DYEAR=1900
DGENRE=
TTITLE0=Introspection
TTITLE1=Outboard, Jeopardy, mood mix
TTITLE2=Planet Samba
TTITLE3=What´s your number, SWAG FM mix
TTITLE4=Now!
TTITLE5=Anonymous
TTITLE6=Psychic (Steve´s (Bug) braless edit
TTITLE7=Sugar Kane Aqua Plane
TTITLE8=Hurt me, Elektronische Wohlfahrt Remix
TTITLE9=Luna an la Pampa
TTITLE10=Cosmic Breeze
EXTD=
EXTT0=
EXTT1=
EXTT2=
EXTT3=
EXTT4=
EXTT5=
EXTT6=
EXTT7=
EXTT8=
EXTT9=
EXTT10=
PLAYORDER=
